<svg class="main-svg" xmlns="http://www.w3.org/2000/svg" xmlns:xlink="http://www.w3.org/1999/xlink" width="950" height="560" style="" viewBox="0 0 950 560"><rect x="0" y="0" width="950" height="560" style="fill: rgb(255, 255, 255); fill-opacity: 1;"/><defs id="defs-70bcd2"><g class="clips"><clipPath id="clip70bcd2xyplot" class="plotclip"><rect width="847" height="397"/></clipPath><clipPath class="axesclip" id="clip70bcd2x"><rect x="63" y="0" width="847" height="560"/></clipPath><clipPath class="axesclip" id="clip70bcd2y"><rect x="0" y="80" width="950" height="397"/></clipPath><clipPath class="axesclip" id="clip70bcd2xy"><rect x="63" y="80" width="847" height="397"/></clipPath></g><g class="gradients"/><g class="patterns"/></defs><g class="bglayer"/><g class="layer-below"><g class="imagelayer"/><g class="shapelayer"/></g><g class="cartesianlayer"><g class="subplot xy"><g class="layer-subplot"><g class="shapelayer"/><g class="imagelayer"/></g><g class="minor-gridlayer"><g class="x"/><g class="y"/></g><g class="gridlayer"><g class="x"><path class="xgrid crisp" transform="translate(143.67000000000002,0)" d="M0,80v397" style="stroke: rgb(243, 244, 246); stroke-opacity: 1; stroke-width: 1px;"/><path class="xgrid crisp" transform="translate(224.33,0)" d="M0,80v397" style="stroke: rgb(243, 244, 246); stroke-opacity: 1; stroke-width: 1px;"/><path class="xgrid crisp" transform="translate(305,0)" d="M0,80v397" style="stroke: rgb(243, 244, 246); stroke-opacity: 1; stroke-width: 1px;"/><path class="xgrid crisp" transform="translate(385.67,0)" d="M0,80v397" style="stroke: rgb(243, 244, 246); stroke-opacity: 1; stroke-width: 1px;"/><path class="xgrid crisp" transform="translate(466.33,0)" d="M0,80v397" style="stroke: rgb(243, 244, 246); stroke-opacity: 1; stroke-width: 1px;"/><path class="xgrid crisp" transform="translate(547,0)" d="M0,80v397" style="stroke: rgb(243, 244, 246); stroke-opacity: 1; stroke-width: 1px;"/><path class="xgrid crisp" transform="translate(627.67,0)" d="M0,80v397" style="stroke: rgb(243, 244, 246); stroke-opacity: 1; stroke-width: 1px;"/><path class="xgrid crisp" transform="translate(708.33,0)" d="M0,80v397" style="stroke: rgb(243, 244, 246); stroke-opacity: 1; stroke-width: 1px;"/><path class="xgrid crisp" transform="translate(789,0)" d="M0,80v397" style="stroke: rgb(243, 244, 246); stroke-opacity: 1; stroke-width: 1px;"/><path class="xgrid crisp" transform="translate(869.67,0)" d="M0,80v397" style="stroke: rgb(243, 244, 246); stroke-opacity: 1; stroke-width: 1px;"/></g><g class="y"><path class="ygrid crisp" transform="translate(0,367.59)" d="M63,0h847" style="stroke: rgb(243, 244, 246); stroke-opacity: 1; stroke-width: 1px;"/><path class="ygrid crisp" transform="translate(0,305.07)" d="M63,0h847" style="stroke: rgb(243, 244, 246); stroke-opacity: 1; stroke-width: 1px;"/><path class="ygrid crisp" transform="translate(0,242.55)" d="M63,0h847" style="stroke: rgb(243, 244, 246); stroke-opacity: 1; stroke-width: 1px;"/><path class="ygrid crisp" transform="translate(0,180.03)" d="M63,0h847" style="stroke: rgb(243, 244, 246); stroke-opacity: 1; stroke-width: 1px;"/><path class="ygrid crisp" transform="translate(0,117.50999999999999)" d="M63,0h847" style="stroke: rgb(243, 244, 246); stroke-opacity: 1; stroke-width: 1px;"/></g></g><g class="zerolinelayer"><path class="xzl zl crisp" transform="translate(63,0)" d="M0,80v397" style="stroke: rgb(255, 255, 255); stroke-opacity: 1; stroke-width: 2px;"/><path class="yzl zl crisp" transform="translate(0,430.11)" d="M63,0h847" style="stroke: rgb(255, 255, 255); stroke-opacity: 1; stroke-width: 2px;"/></g><g class="layer-between"><g class="shapelayer"/><g class="imagelayer"/></g><path class="xlines-below"/><path class="ylines-below"/><g class="overlines-below"/><g class="xaxislayer-below"/><g class="yaxislayer-below"/><g class="overaxes-below"/><g class="overplot"><g class="xy" transform="translate(63,80)" clip-path="url(#clip70bcd2xyplot)"><g class="scatterlayer mlayer"><g class="trace scatter trace299f9f" style="stroke-miterlimit: 2; opacity: 1;"><g class="fills"/><g class="errorbars"/><g class="lines"/><g class="points"><path class="point" transform="translate(242,362.61)" d="M0,5.09l5.09,5.09l5.09,-5.09l-5.09,-5.09l5.09,-5.09l-5.09,-5.09l-5.09,5.09l-5.09,-5.09l-5.09,5.09l5.09,5.09l-5.09,5.09l5.09,5.09Z" style="opacity: 1; stroke-width: 2px; fill: rgb(220, 38, 38); fill-opacity: 1; stroke: rgb(153, 27, 27); stroke-opacity: 1;"/><path class="point" transform="translate(306.53,362.61)" d="M0,5.09l5.09,5.09l5.09,-5.09l-5.09,-5.09l5.09,-5.09l-5.09,-5.09l-5.09,5.09l-5.09,-5.09l-5.09,5.09l5.09,5.09l-5.09,5.09l5.09,5.09Z" style="opacity: 1; stroke-width: 2px; fill: rgb(220, 38, 38); fill-opacity: 1; stroke: rgb(153, 27, 27); stroke-opacity: 1;"/><path class="point" transform="translate(322.67,362.61)" d="M0,5.09l5.09,5.09l5.09,-5.09l-5.09,-5.09l5.09,-5.09l-5.09,-5.09l-5.09,5.09l-5.09,-5.09l-5.09,5.09l5.09,5.09l-5.09,5.09l5.09,5.09Z" style="opacity: 1; stroke-width: 2px; fill: rgb(220, 38, 38); fill-opacity: 1; stroke: rgb(153, 27, 27); stroke-opacity: 1;"/><path class="point" transform="translate(322.67,362.61)" d="M0,5.09l5.09,5.09l5.09,-5.09l-5.09,-5.09l5.09,-5.09l-5.09,-5.09l-5.09,5.09l-5.09,-5.09l-5.09,5.09l5.09,5.09l-5.09,5.09l5.09,5.09Z" style="opacity: 1; stroke-width: 2px; fill: rgb(220, 38, 38); fill-opacity: 1; stroke: rgb(153, 27, 27); stroke-opacity: 1;"/></g><g class="text"/></g><g class="trace scatter trace10a5d4" style="stroke-miterlimit: 2; opacity: 1;"><g class="fills"/><g class="errorbars"/><g class="lines"/><g class="points"><path class="point" transform="translate(80.67,61.58)" d="M10,0A10,10 0 1,1 0,-10A10,10 0 0,1 10,0Z" style="opacity: 1; stroke-width: 2px; fill: rgb(5, 150, 105); fill-opacity: 1; stroke: rgb(6, 95, 70); stroke-opacity: 1;"/><path class="point" transform="translate(726,45.95)" d="M10,0A10,10 0 1,1 0,-10A10,10 0 0,1 10,0Z" style="opacity: 1; stroke-width: 2px; fill: rgb(5, 150, 105); fill-opacity: 1; stroke: rgb(6, 95, 70); stroke-opacity: 1;"/></g><g class="text"/></g></g></g></g><g class="zerolinelayer-above"/><path class="xlines-above crisp" d="M0,0" style="fill: none;"/><path class="ylines-above crisp" d="M0,0" style="fill: none;"/><g class="overlines-above"/><g class="xaxislayer-above"><g class="xtick"><text text-anchor="middle" x="0" y="492" transform="translate(63,0)" style="font-family: Inter, Helvetica, Arial, sans-serif; font-size: 14px; fill: rgb(31, 41, 55); fill-opacity: 1; white-space: pre;">0</text></g><g class="xtick"><text text-anchor="middle" x="0" y="492" style="font-family: Inter, Helvetica, Arial, sans-serif; font-size: 14px; fill: rgb(31, 41, 55); fill-opacity: 1; white-space: pre;" transform="translate(143.67000000000002,0)">1</text></g><g class="xtick"><text text-anchor="middle" x="0" y="492" style="font-family: Inter, Helvetica, Arial, sans-serif; font-size: 14px; fill: rgb(31, 41, 55); fill-opacity: 1; white-space: pre;" transform="translate(224.33,0)">2</text></g><g class="xtick"><text text-anchor="middle" x="0" y="492" style="font-family: Inter, Helvetica, Arial, sans-serif; font-size: 14px; fill: rgb(31, 41, 55); fill-opacity: 1; white-space: pre;" transform="translate(305,0)">3</text></g><g class="xtick"><text text-anchor="middle" x="0" y="492" style="font-family: Inter, Helvetica, Arial, sans-serif; font-size: 14px; fill: rgb(31, 41, 55); fill-opacity: 1; white-space: pre;" transform="translate(385.67,0)">4</text></g><g class="xtick"><text text-anchor="middle" x="0" y="492" style="font-family: Inter, Helvetica, Arial, sans-serif; font-size: 14px; fill: rgb(31, 41, 55); fill-opacity: 1; white-space: pre;" transform="translate(466.33,0)">5</text></g><g class="xtick"><text text-anchor="middle" x="0" y="492" style="font-family: Inter, Helvetica, Arial, sans-serif; font-size: 14px; fill: rgb(31, 41, 55); fill-opacity: 1; white-space: pre;" transform="translate(547,0)">6</text></g><g class="xtick"><text text-anchor="middle" x="0" y="492" style="font-family: Inter, Helvetica, Arial, sans-serif; font-size: 14px; fill: rgb(31, 41, 55); fill-opacity: 1; white-space: pre;" transform="translate(627.67,0)">7</text></g><g class="xtick"><text text-anchor="middle" x="0" y="492" style="font-family: Inter, Helvetica, Arial, sans-serif; font-size: 14px; fill: rgb(31, 41, 55); fill-opacity: 1; white-space: pre;" transform="translate(708.33,0)">8</text></g><g class="xtick"><text text-anchor="middle" x="0" y="492" style="font-family: Inter, Helvetica, Arial, sans-serif; font-size: 14px; fill: rgb(31, 41, 55); fill-opacity: 1; white-space: pre;" transform="translate(789,0)">9</text></g><g class="xtick"><text text-anchor="middle" x="0" y="492" style="font-family: Inter, Helvetica, Arial, sans-serif; font-size: 14px; fill: rgb(31, 41, 55); fill-opacity: 1; white-space: pre;" transform="translate(869.67,0)">10</text></g></g><g class="yaxislayer-above"><g class="ytick"><text text-anchor="end" x="62" y="4.8999999999999995" transform="translate(0,430.11)" style="font-family: Inter, Helvetica, Arial, sans-serif; font-size: 14px; fill: rgb(31, 41, 55); fill-opacity: 1; white-space: pre;">0</text></g><g class="ytick"><text text-anchor="end" x="62" y="4.8999999999999995" style="font-family: Inter, Helvetica, Arial, sans-serif; font-size: 14px; fill: rgb(31, 41, 55); fill-opacity: 1; white-space: pre;" transform="translate(0,367.59)">20</text></g><g class="ytick"><text text-anchor="end" x="62" y="4.8999999999999995" style="font-family: Inter, Helvetica, Arial, sans-serif; font-size: 14px; fill: rgb(31, 41, 55); fill-opacity: 1; white-space: pre;" transform="translate(0,305.07)">40</text></g><g class="ytick"><text text-anchor="end" x="62" y="4.8999999999999995" style="font-family: Inter, Helvetica, Arial, sans-serif; font-size: 14px; fill: rgb(31, 41, 55); fill-opacity: 1; white-space: pre;" transform="translate(0,242.55)">60</text></g><g class="ytick"><text text-anchor="end" x="62" y="4.8999999999999995" style="font-family: Inter, Helvetica, Arial, sans-serif; font-size: 14px; fill: rgb(31, 41, 55); fill-opacity: 1; white-space: pre;" transform="translate(0,180.03)">80</text></g><g class="ytick"><text text-anchor="end" x="62" y="4.8999999999999995" style="font-family: Inter, Helvetica, Arial, sans-serif; font-size: 14px; fill: rgb(31, 41, 55); fill-opacity: 1; white-space: pre;" transform="translate(0,117.50999999999999)">100</text></g></g><g class="overaxes-above"/></g></g><g class="polarlayer"/><g class="smithlayer"/><g class="ternarylayer"/><g class="geolayer"/><g class="funnelarealayer"/><g class="pielayer"/><g class="iciclelayer"/><g class="treemaplayer"/><g class="sunburstlayer"/><g class="glimages"/><defs id="topdefs-70bcd2"><g class="clips"/><clipPath id="legend70bcd2"><rect width="346" height="32" x="0" y="0"/></clipPath></defs><g class="layer-above"><g class="imagelayer"/><g class="shapelayer"><g class="shape-group" data-index="0" clip-path="url(#clip70bcd2y)"><path data-index="0" fill-rule="evenodd" d="M63,430.11L910,430.11" style="opacity: 1; stroke: rgb(209, 213, 219); stroke-opacity: 1; fill: rgb(0, 0, 0); fill-opacity: 0; stroke-dasharray: 3px, 3px; stroke-width: 1px;"/></g></g></g><g class="infolayer"><g class="legend" pointer-events="all" transform="translate(313.5,516.46)"><rect class="bg" shape-rendering="crispEdges" style="stroke: rgb(68, 68, 68); stroke-opacity: 1; fill: rgb(255, 255, 255); fill-opacity: 1; stroke-width: 0px;" width="346" height="32" x="0" y="0"/><g class="scrollbox" transform="" clip-path="url(#legend70bcd2)"><g class="groups"><g class="traces" transform="translate(0,15.6)" style="opacity: 1;"><text class="legendtext" text-anchor="start" x="40" y="5.46" style="font-family: Inter, Helvetica, Arial, sans-serif; font-size: 14px; fill: rgb(31, 41, 55); fill-opacity: 1; white-space: pre;">Failed to learn Logos</text><g class="layers" style="opacity: 1;"><g class="legendfill"/><g class="legendlines"/><g class="legendsymbols"><g class="legendpoints"><path class="scatterpts" transform="translate(20,0)" d="M0,4.53l4.53,4.53l4.53,-4.53l-4.53,-4.53l4.53,-4.53l-4.53,-4.53l-4.53,4.53l-4.53,-4.53l-4.53,4.53l4.53,4.53l-4.53,4.53l4.53,4.53Z" style="opacity: 1; stroke-width: 2px; fill: rgb(220, 38, 38); fill-opacity: 1; stroke: rgb(153, 27, 27); stroke-opacity: 1;"/></g></g></g><rect class="legendtoggle" x="0" y="-10.6" width="173.265625" height="21.2" style="fill: rgb(0, 0, 0); fill-opacity: 0;"/></g><g class="traces" transform="translate(175.765625,15.6)" style="opacity: 1;"><text class="legendtext" text-anchor="start" x="40" y="5.46" style="font-family: Inter, Helvetica, Arial, sans-serif; font-size: 14px; fill: rgb(31, 41, 55); fill-opacity: 1; white-space: pre;">Successfully trained</text><g class="layers" style="opacity: 1;"><g class="legendfill"/><g class="legendlines"/><g class="legendsymbols"><g class="legendpoints"><path class="scatterpts" transform="translate(20,0)" d="M8,0A8,8 0 1,1 0,-8A8,8 0 0,1 8,0Z" style="opacity: 1; stroke-width: 2px; fill: rgb(5, 150, 105); fill-opacity: 1; stroke: rgb(6, 95, 70); stroke-opacity: 1;"/></g></g></g><rect class="legendtoggle" x="0" y="-10.6" width="167.015625" height="21.2" style="fill: rgb(0, 0, 0); fill-opacity: 0;"/></g></g></g><rect class="scrollbar" rx="20" ry="3" width="0" height="0" style="fill: rgb(128, 139, 164); fill-opacity: 1;" x="0" y="0"/></g><g class="g-gtitle"><text class="gtitle" x="47.5" y="40" text-anchor="start" dy="0em" style="opacity: 1; font-family: Inter, Helvetica, Arial, sans-serif; font-size: 18px; fill: rgb(31, 41, 55); fill-opacity: 1; white-space: pre;"><tspan style="font-weight:bold">Figure 3.</tspan> Model Size vs. Epistemological Trainability</text></g><g class="g-xtitle"><text class="xtitle" x="486.5" y="521.4" text-anchor="middle" style="opacity: 1; font-family: Inter, Helvetica, Arial, sans-serif; font-size: 17px; fill: rgb(31, 41, 55); fill-opacity: 1; white-space: pre;">Parameters (B)</text></g><g class="g-ytitle"><text class="ytitle" transform="rotate(-90,18.190624999999997,278.5)" x="18.190624999999997" y="278.5" text-anchor="middle" style="opacity: 1; font-family: Inter, Helvetica, Arial, sans-serif; font-size: 17px; fill: rgb(31, 41, 55); fill-opacity: 1; white-space: pre;">Behavioral Accuracy (%)</text></g><g class="annotation" data-index="0" style="opacity: 1;"><g class="annotation-text-g" transform="rotate(0,143.67000000000002,106.57999999999998)"><g class="cursor-pointer" transform="translate(105,90)"><rect class="bg" x="0.5" y="0.5" width="76" height="33" style="stroke-width: 1px; stroke: rgb(0, 0, 0); stroke-opacity: 0; fill: rgb(0, 0, 0); fill-opacity: 0;"/><text class="annotation-text" text-anchor="middle" x="38.3515625" y="13" style="font-family: Inter, Helvetica, Arial, sans-serif; font-size: 12px; fill: rgb(5, 150, 105); fill-opacity: 1; white-space: pre;"><tspan class="line" dy="0em" x="38.3515625" y="13"><tspan style="font-weight:bold">Gemma 3 1B</tspan></tspan><tspan class="line" dy="1.3em" x="38.3515625" y="13">92.3%</tspan></text></g></g><g class="annotation-arrow-g" style="opacity: 1;"><path d="M143.67000000000002,123.07999999999998L143.67000000000002,141.57999999999998" style="stroke-width: 1px; stroke: rgb(42, 63, 95); stroke-opacity: 1; stroke-dasharray: 0px, 0px, 18.5px, 18.5px;"/></g></g><g class="annotation" data-index="1" style="opacity: 1;"><g class="annotation-text-g" transform="rotate(0,789,90.95)"><g class="cursor-pointer" transform="translate(751,74)"><rect class="bg" x="0.5" y="0.5" width="76" height="33" style="stroke-width: 1px; stroke: rgb(0, 0, 0); stroke-opacity: 0; fill: rgb(0, 0, 0); fill-opacity: 0;"/><text class="annotation-text" text-anchor="middle" x="38.3515625" y="13" style="font-family: Inter, Helvetica, Arial, sans-serif; font-size: 12px; fill: rgb(5, 150, 105); fill-opacity: 1; white-space: pre;"><tspan class="line" dy="0em" x="38.3515625" y="13"><tspan style="font-weight:bold">Gemma 2 9B</tspan></tspan><tspan class="line" dy="1.3em" x="38.3515625" y="13">97.3%</tspan></text></g></g><g class="annotation-arrow-g" style="opacity: 1;"><path d="M789,107.45L789,125.95" style="stroke-width: 1px; stroke: rgb(42, 63, 95); stroke-opacity: 1; stroke-dasharray: 0px, 0px, 18.5px, 18.5px;"/></g></g><g class="annotation" data-index="2" style="opacity: 1;"><g class="annotation-text-g" transform="rotate(0,245,397.61)"><g class="cursor-pointer" transform="translate(218,383)"><rect class="bg" x="0.5" y="0.5" width="53" height="29" style="stroke-width: 1px; stroke: rgb(0, 0, 0); stroke-opacity: 0; fill: rgb(0, 0, 0); fill-opacity: 0;"/><text class="annotation-text" text-anchor="middle" x="27.0703125" y="12" style="font-family: Inter, Helvetica, Arial, sans-serif; font-size: 11px; fill: rgb(220, 38, 38); fill-opacity: 1; white-space: pre;"><tspan class="line" dy="0em" x="27.0703125" y="12"><tspan style="font-weight:bold">Llama 3.2</tspan></tspan><tspan class="line" dy="1.3em" x="27.0703125" y="12">3B</tspan></text></g></g><g class="annotation-arrow-g" style="opacity: 1;"><path d="M264.3333333333333,412.11L305,442.61" style="stroke-width: 1.5px; stroke: rgb(220, 38, 38); stroke-opacity: 1; stroke-dasharray: 0px, 0px, 50.8333px, 50.8333px;"/></g></g><g class="annotation" data-index="3" style="opacity: 1;"><g class="annotation-text-g" transform="rotate(0,339.53,487.61)"><g class="cursor-pointer" transform="translate(324,473)"><rect class="bg" x="0.5" y="0.5" width="30" height="29" style="stroke-width: 1px; stroke: rgb(0, 0, 0); stroke-opacity: 0; fill: rgb(0, 0, 0); fill-opacity: 0;"/><text class="annotation-text" text-anchor="middle" x="15.453125" y="12" style="font-family: Inter, Helvetica, Arial, sans-serif; font-size: 11px; fill: rgb(220, 38, 38); fill-opacity: 1; white-space: pre;"><tspan class="line" dy="0em" x="15.453125" y="12"><tspan style="font-weight:bold">Phi-3</tspan></tspan><tspan class="line" dy="1.3em" x="15.453125" y="12">3.8B</tspan></text></g></g><g class="annotation-arrow-g" style="opacity: 1;"><path d="M349.19666666666666,473.11L369.53,442.61" style="stroke-width: 1.5px; stroke: rgb(220, 38, 38); stroke-opacity: 1; stroke-dasharray: 0px, 0px, 36.6564px, 36.6564px;"/></g></g><g class="annotation" data-index="4" style="opacity: 1;"><g class="annotation-text-g" transform="rotate(0,455.67,397.61)"><g class="cursor-pointer" transform="translate(415,383)"><rect class="bg" x="0.5" y="0.5" width="80" height="29" style="stroke-width: 1px; stroke: rgb(0, 0, 0); stroke-opacity: 0; fill: rgb(0, 0, 0); fill-opacity: 0;"/><text class="annotation-text" text-anchor="middle" x="40.515625" y="12" style="font-family: Inter, Helvetica, Arial, sans-serif; font-size: 11px; fill: rgb(220, 38, 38); fill-opacity: 1; white-space: pre;"><tspan class="line" dy="0em" x="40.515625" y="12"><tspan style="font-weight:bold">Gemma 3 4B-it</tspan></tspan><tspan class="line" dy="1.3em" x="40.515625" y="12">4B (multimodal)</tspan></text></g></g><g class="annotation-arrow-g" style="opacity: 1;"><path d="M433.1144444444445,412.11L385.67,442.61" style="stroke-width: 1.5px; stroke: rgb(220, 38, 38); stroke-opacity: 1; stroke-dasharray: 0px, 0px, 56.4023px, 56.4023px;"/></g></g><g class="annotation" data-index="5" style="opacity: 1;"><g class="annotation-text-g" transform="rotate(0,445.67,487.61)"><g class="cursor-pointer" transform="translate(418,473)"><rect class="bg" x="0.5" y="0.5" width="55" height="29" style="stroke-width: 1px; stroke: rgb(0, 0, 0); stroke-opacity: 0; fill: rgb(0, 0, 0); fill-opacity: 0;"/><text class="annotation-text" text-anchor="middle" x="27.9765625" y="12" style="font-family: Inter, Helvetica, Arial, sans-serif; font-size: 11px; fill: rgb(220, 38, 38); fill-opacity: 1; white-space: pre;"><tspan class="line" dy="0em" x="27.9765625" y="12"><tspan style="font-weight:bold">Nemotron</tspan></tspan><tspan class="line" dy="1.3em" x="27.9765625" y="12">4B</tspan></text></g></g><g class="annotation-arrow-g" style="opacity: 1;"><path d="M426.3366666666667,473.11L385.67,442.61" style="stroke-width: 1.5px; stroke: rgb(220, 38, 38); stroke-opacity: 1; stroke-dasharray: 0px, 0px, 50.8333px, 50.8333px;"/></g></g><g class="annotation" data-index="6" style="opacity: 1;"><g class="annotation-text-g" transform="rotate(0,506.67,258.18)"><g class="cursor-pointer" transform="translate(376,236)"><rect class="bg" x="0.5" y="0.5" width="261" height="43" style="stroke-width: 1px; stroke: rgb(229, 231, 235); stroke-opacity: 1; fill: rgb(249, 250, 251); fill-opacity: 0.95;"/><text class="annotation-text" text-anchor="middle" x="131.0625" y="18" style="font-family: Inter, Helvetica, Arial, sans-serif; font-size: 12px; fill: rgb(107, 114, 128); fill-opacity: 1; white-space: pre;"><tspan class="line" dy="0em" x="131.0625" y="18"><tspan style="font-weight:bold">Key insight:</tspan> More parameters ≠ better</tspan><tspan class="line" dy="1.3em" x="131.0625" y="18">epistemological behavior. Architecture matters.</tspan></text></g></g></g><g class="annotation" data-index="7" style="opacity: 1;"><g class="annotation-text-g" transform="rotate(0,853,437.61)"><g class="cursor-pointer" transform="translate(796,430)"><rect class="bg" x="0.5" y="0.5" width="113" height="14" style="stroke-width: 1px; stroke: rgb(0, 0, 0); stroke-opacity: 0; fill: rgb(0, 0, 0); fill-opacity: 0;"/><text class="annotation-text" text-anchor="middle" x="56.84375" y="11" style="font-family: Inter, Helvetica, Arial, sans-serif; font-size: 10px; fill: rgb(156, 163, 175); fill-opacity: 1; white-space: pre;">Training failure threshold</text></g></g></g></g></svg>