<svg class="main-svg" xmlns="http://www.w3.org/2000/svg" xmlns:xlink="http://www.w3.org/1999/xlink" width="1050" height="570" style="" viewBox="0 0 1050 570"><rect x="0" y="0" width="1050" height="570" style="fill: rgb(255, 255, 255); fill-opacity: 1;"/><defs id="defs-3bc9e0"><g class="clips"><clipPath id="clip3bc9e0xyplot" class="plotclip"><rect width="947" height="373"/></clipPath><clipPath class="axesclip" id="clip3bc9e0x"><rect x="63" y="0" width="947" height="570"/></clipPath><clipPath class="axesclip" id="clip3bc9e0y"><rect x="0" y="80" width="1050" height="373"/></clipPath><clipPath class="axesclip" id="clip3bc9e0xy"><rect x="63" y="80" width="947" height="373"/></clipPath></g><g class="gradients"/><g class="patterns"/></defs><g class="bglayer"/><g class="layer-below"><g class="imagelayer"/><g class="shapelayer"/></g><g class="cartesianlayer"><g class="subplot xy"><g class="layer-subplot"><g class="shapelayer"/><g class="imagelayer"/></g><g class="minor-gridlayer"><g class="x"/><g class="y"/></g><g class="gridlayer"><g class="x"/><g class="y"><path class="ygrid crisp" transform="translate(0,388.13)" d="M63,0h947" style="stroke: rgb(243, 244, 246); stroke-opacity: 1; stroke-width: 1px;"/><path class="ygrid crisp" transform="translate(0,323.26)" d="M63,0h947" style="stroke: rgb(243, 244, 246); stroke-opacity: 1; stroke-width: 1px;"/><path class="ygrid crisp" transform="translate(0,258.39)" d="M63,0h947" style="stroke: rgb(243, 244, 246); stroke-opacity: 1; stroke-width: 1px;"/><path class="ygrid crisp" transform="translate(0,193.51999999999998)" d="M63,0h947" style="stroke: rgb(243, 244, 246); stroke-opacity: 1; stroke-width: 1px;"/><path class="ygrid crisp" transform="translate(0,128.65)" d="M63,0h947" style="stroke: rgb(243, 244, 246); stroke-opacity: 1; stroke-width: 1px;"/></g></g><g class="zerolinelayer"><path class="yzl zl crisp" transform="translate(0,453)" d="M63,0h947" style="stroke: rgb(255, 255, 255); stroke-opacity: 1; stroke-width: 2px;"/></g><g class="layer-between"><g class="shapelayer"/><g class="imagelayer"/></g><path class="xlines-below"/><path class="ylines-below"/><g class="overlines-below"/><g class="xaxislayer-below"/><g class="yaxislayer-below"/><g class="overaxes-below"/><g class="overplot"><g class="xy" transform="translate(63,80)" clip-path="url(#clip3bc9e0xyplot)"><g class="barlayer mlayer"><g class="trace bars" style="opacity: 1;"><g class="points"><g class="point"><path d="M11.84,373V50.27H59.19V373Z" style="vector-effect: none; opacity: 1; stroke-width: 0.5px; fill: rgb(37, 99, 235); fill-opacity: 1; stroke: rgb(229, 236, 246); stroke-opacity: 1;"/></g><g class="point"><path d="M130.21,373V104.12H177.56V373Z" style="vector-effect: none; opacity: 1; stroke-width: 0.5px; fill: rgb(37, 99, 235); fill-opacity: 1; stroke: rgb(229, 236, 246); stroke-opacity: 1;"/></g><g class="point"><path d="M248.59,373V74.6H295.94V373Z" style="vector-effect: none; opacity: 1; stroke-width: 0.5px; fill: rgb(37, 99, 235); fill-opacity: 1; stroke: rgb(229, 236, 246); stroke-opacity: 1;"/></g><g class="point"><path d="M366.96,373V105.09H414.31V373Z" style="vector-effect: none; opacity: 1; stroke-width: 0.5px; fill: rgb(37, 99, 235); fill-opacity: 1; stroke: rgb(229, 236, 246); stroke-opacity: 1;"/></g><g class="point"><path d="M485.34,373V169.96H532.69V373Z" style="vector-effect: none; opacity: 1; stroke-width: 0.5px; fill: rgb(37, 99, 235); fill-opacity: 1; stroke: rgb(229, 236, 246); stroke-opacity: 1;"/></g><g class="point"><path d="M603.71,373V238.4H651.06V373Z" style="vector-effect: none; opacity: 1; stroke-width: 0.5px; fill: rgb(37, 99, 235); fill-opacity: 1; stroke: rgb(229, 236, 246); stroke-opacity: 1;"/></g><g class="point"><path d="M722.09,373V213.42H769.44V373Z" style="vector-effect: none; opacity: 1; stroke-width: 0.5px; fill: rgb(37, 99, 235); fill-opacity: 1; stroke: rgb(229, 236, 246); stroke-opacity: 1;"/></g><g class="point"><path d="M840.46,373V230.29H887.81V373Z" style="vector-effect: none; opacity: 1; stroke-width: 0.5px; fill: rgb(37, 99, 235); fill-opacity: 1; stroke: rgb(229, 236, 246); stroke-opacity: 1;"/></g></g></g><g class="trace bars" style="opacity: 1;"><g class="points"><g class="point"><path d="M59.19,373V115.79H106.54V373Z" style="vector-effect: none; opacity: 1; stroke-width: 0.5px; fill: rgb(217, 119, 6); fill-opacity: 1; stroke: rgb(229, 236, 246); stroke-opacity: 1;"/></g><g class="point"><path d="M177.56,373V133.31H224.91V373Z" style="vector-effect: none; opacity: 1; stroke-width: 0.5px; fill: rgb(217, 119, 6); fill-opacity: 1; stroke: rgb(229, 236, 246); stroke-opacity: 1;"/></g><g class="point"><path d="M295.94,373V252.34H343.29V373Z" style="vector-effect: none; opacity: 1; stroke-width: 0.5px; fill: rgb(217, 119, 6); fill-opacity: 1; stroke: rgb(229, 236, 246); stroke-opacity: 1;"/></g><g class="point"><path d="M414.31,373V231.26H461.66V373Z" style="vector-effect: none; opacity: 1; stroke-width: 0.5px; fill: rgb(217, 119, 6); fill-opacity: 1; stroke: rgb(229, 236, 246); stroke-opacity: 1;"/></g><g class="point"><path d="M532.69,373V257.21H580.04V373Z" style="vector-effect: none; opacity: 1; stroke-width: 0.5px; fill: rgb(217, 119, 6); fill-opacity: 1; stroke: rgb(229, 236, 246); stroke-opacity: 1;"/></g><g class="point"><path d="M651.06,373V132.98H698.41V373Z" style="vector-effect: none; opacity: 1; stroke-width: 0.5px; fill: rgb(217, 119, 6); fill-opacity: 1; stroke: rgb(229, 236, 246); stroke-opacity: 1;"/></g><g class="point"><path d="M769.44,373V311.05H816.79V373Z" style="vector-effect: none; opacity: 1; stroke-width: 0.5px; fill: rgb(217, 119, 6); fill-opacity: 1; stroke: rgb(229, 236, 246); stroke-opacity: 1;"/></g><g class="point"><path d="M887.81,373V278.61H935.16V373Z" style="vector-effect: none; opacity: 1; stroke-width: 0.5px; fill: rgb(217, 119, 6); fill-opacity: 1; stroke: rgb(229, 236, 246); stroke-opacity: 1;"/></g></g></g></g><g class="scatterlayer mlayer"><g class="trace scatter trace96cbd4" style="stroke-miterlimit: 2; opacity: 1;"><g class="fills"/><g class="errorbars"/><g class="lines"><path class="js-line" d="M59.19,113.2L177.56,111.9L295.94,232.56L414.31,215.69L532.69,208.23L651.06,198.83L769.44,155.69L887.81,161.53" style="vector-effect: none; fill: none; stroke: rgb(220, 38, 38); stroke-opacity: 1; stroke-dasharray: 9px, 9px; stroke-width: 2px; opacity: 1;"/></g><g class="points"><path class="point" transform="translate(59.19,113.2)" d="M4,0A4,4 0 1,1 0,-4A4,4 0 0,1 4,0Z" style="opacity: 1; stroke-width: 0px; fill: rgb(220, 38, 38); fill-opacity: 1;"/><path class="point" transform="translate(177.56,111.9)" d="M4,0A4,4 0 1,1 0,-4A4,4 0 0,1 4,0Z" style="opacity: 1; stroke-width: 0px; fill: rgb(220, 38, 38); fill-opacity: 1;"/><path class="point" transform="translate(295.94,232.56)" d="M4,0A4,4 0 1,1 0,-4A4,4 0 0,1 4,0Z" style="opacity: 1; stroke-width: 0px; fill: rgb(220, 38, 38); fill-opacity: 1;"/><path class="point" transform="translate(414.31,215.69)" d="M4,0A4,4 0 1,1 0,-4A4,4 0 0,1 4,0Z" style="opacity: 1; stroke-width: 0px; fill: rgb(220, 38, 38); fill-opacity: 1;"/><path class="point" transform="translate(532.69,208.23)" d="M4,0A4,4 0 1,1 0,-4A4,4 0 0,1 4,0Z" style="opacity: 1; stroke-width: 0px; fill: rgb(220, 38, 38); fill-opacity: 1;"/><path class="point" transform="translate(651.06,198.83)" d="M4,0A4,4 0 1,1 0,-4A4,4 0 0,1 4,0Z" style="opacity: 1; stroke-width: 0px; fill: rgb(220, 38, 38); fill-opacity: 1;"/><path class="point" transform="translate(769.44,155.69)" d="M4,0A4,4 0 1,1 0,-4A4,4 0 0,1 4,0Z" style="opacity: 1; stroke-width: 0px; fill: rgb(220, 38, 38); fill-opacity: 1;"/><path class="point" transform="translate(887.81,161.53)" d="M4,0A4,4 0 1,1 0,-4A4,4 0 0,1 4,0Z" style="opacity: 1; stroke-width: 0px; fill: rgb(220, 38, 38); fill-opacity: 1;"/></g><g class="text"/></g></g></g></g><g class="zerolinelayer-above"/><path class="xlines-above crisp" d="M0,0" style="fill: none;"/><path class="ylines-above crisp" d="M0,0" style="fill: none;"/><g class="overlines-above"/><g class="xaxislayer-above"><g class="xtick"><text text-anchor="end" x="0" y="468" transform="translate(122.19,0) rotate(-25,0,461)" style="font-family: Inter, Helvetica, Arial, sans-serif; font-size: 14px; fill: rgb(31, 41, 55); fill-opacity: 1; white-space: pre;">ADVERSARIAL</text></g><g class="xtick"><text text-anchor="end" x="0" y="468" transform="translate(240.56,0) rotate(-25,0,461)" style="font-family: Inter, Helvetica, Arial, sans-serif; font-size: 14px; fill: rgb(31, 41, 55); fill-opacity: 1; white-space: pre;"><tspan class="line" dy="0em" x="0" y="468">EPISTEMIC</tspan><tspan class="line" dy="1.3em" x="0" y="468">HUMILITY</tspan></text></g><g class="xtick"><text text-anchor="end" x="0" y="468" transform="translate(358.94,0) rotate(-25,0,461)" style="font-family: Inter, Helvetica, Arial, sans-serif; font-size: 14px; fill: rgb(31, 41, 55); fill-opacity: 1; white-space: pre;"><tspan class="line" dy="0em" x="0" y="468">SAFE</tspan><tspan class="line" dy="1.3em" x="0" y="468">PASSAGE</tspan></text></g><g class="xtick"><text text-anchor="end" x="0" y="468" transform="translate(477.31,0) rotate(-25,0,461)" style="font-family: Inter, Helvetica, Arial, sans-serif; font-size: 14px; fill: rgb(31, 41, 55); fill-opacity: 1; white-space: pre;"><tspan class="line" dy="0em" x="0" y="468">IDENTITY</tspan><tspan class="line" dy="1.3em" x="0" y="468">INTEGRITY</tspan></text></g><g class="xtick"><text text-anchor="end" x="0" y="468" transform="translate(595.69,0) rotate(-25,0,461)" style="font-family: Inter, Helvetica, Arial, sans-serif; font-size: 14px; fill: rgb(31, 41, 55); fill-opacity: 1; white-space: pre;"><tspan class="line" dy="0em" x="0" y="468">IRREDUCIBLE</tspan><tspan class="line" dy="1.3em" x="0" y="468">UNCERTAINTY</tspan></text></g><g class="xtick"><text text-anchor="end" x="0" y="468" transform="translate(714.06,0) rotate(-25,0,461)" style="font-family: Inter, Helvetica, Arial, sans-serif; font-size: 14px; fill: rgb(31, 41, 55); fill-opacity: 1; white-space: pre;"><tspan class="line" dy="0em" x="0" y="468">HARMFUL</tspan><tspan class="line" dy="1.3em" x="0" y="468">REFUSAL</tspan></text></g><g class="xtick"><text text-anchor="end" x="0" y="468" transform="translate(832.44,0) rotate(-25,0,461)" style="font-family: Inter, Helvetica, Arial, sans-serif; font-size: 14px; fill: rgb(31, 41, 55); fill-opacity: 1; white-space: pre;">CONTROL</text></g><g class="xtick"><text text-anchor="end" x="0" y="468" transform="translate(950.81,0) rotate(-25,0,461)" style="font-family: Inter, Helvetica, Arial, sans-serif; font-size: 14px; fill: rgb(31, 41, 55); fill-opacity: 1; white-space: pre;"><tspan class="line" dy="0em" x="0" y="468">ERROR</tspan><tspan class="line" dy="1.3em" x="0" y="468">CORRECTION</tspan></text></g></g><g class="yaxislayer-above"><g class="ytick"><text text-anchor="end" x="62" y="4.8999999999999995" transform="translate(0,453)" style="font-family: Inter, Helvetica, Arial, sans-serif; font-size: 14px; fill: rgb(31, 41, 55); fill-opacity: 1; white-space: pre;">0</text></g><g class="ytick"><text text-anchor="end" x="62" y="4.8999999999999995" style="font-family: Inter, Helvetica, Arial, sans-serif; font-size: 14px; fill: rgb(31, 41, 55); fill-opacity: 1; white-space: pre;" transform="translate(0,388.13)">20</text></g><g class="ytick"><text text-anchor="end" x="62" y="4.8999999999999995" style="font-family: Inter, Helvetica, Arial, sans-serif; font-size: 14px; fill: rgb(31, 41, 55); fill-opacity: 1; white-space: pre;" transform="translate(0,323.26)">40</text></g><g class="ytick"><text text-anchor="end" x="62" y="4.8999999999999995" style="font-family: Inter, Helvetica, Arial, sans-serif; font-size: 14px; fill: rgb(31, 41, 55); fill-opacity: 1; white-space: pre;" transform="translate(0,258.39)">60</text></g><g class="ytick"><text text-anchor="end" x="62" y="4.8999999999999995" style="font-family: Inter, Helvetica, Arial, sans-serif; font-size: 14px; fill: rgb(31, 41, 55); fill-opacity: 1; white-space: pre;" transform="translate(0,193.51999999999998)">80</text></g><g class="ytick"><text text-anchor="end" x="62" y="4.8999999999999995" style="font-family: Inter, Helvetica, Arial, sans-serif; font-size: 14px; fill: rgb(31, 41, 55); fill-opacity: 1; white-space: pre;" transform="translate(0,128.65)">100</text></g></g><g class="overaxes-above"/></g></g><g class="polarlayer"/><g class="smithlayer"/><g class="ternarylayer"/><g class="geolayer"/><g class="funnelarealayer"/><g class="pielayer"/><g class="iciclelayer"/><g class="treemaplayer"/><g class="sunburstlayer"/><g class="glimages"/><defs id="topdefs-3bc9e0"><g class="clips"/><clipPath id="legend3bc9e0"><rect width="571" height="32" x="0" y="0"/></clipPath></defs><g class="layer-above"><g class="imagelayer"/><g class="shapelayer"/></g><g class="infolayer"><g class="legend" pointer-events="all" transform="translate(251,525.44)"><rect class="bg" shape-rendering="crispEdges" style="stroke: rgb(68, 68, 68); stroke-opacity: 1; fill: rgb(255, 255, 255); fill-opacity: 1; stroke-width: 0px;" width="571" height="32" x="0" y="0"/><g class="scrollbox" transform="" clip-path="url(#legend3bc9e0)"><g class="groups"><g class="traces" transform="translate(0,15.6)" style="opacity: 1;"><text class="legendtext" text-anchor="start" x="40" y="5.46" style="font-family: Inter, Helvetica, Arial, sans-serif; font-size: 14px; fill: rgb(31, 41, 55); fill-opacity: 1; white-space: pre;">Local Evaluator Pass %</text><g class="layers" style="opacity: 1;"><g class="legendfill"/><g class="legendlines"/><g class="legendsymbols"><g class="legendpoints"><path class="legendundefined" d="M6,6H-6V-6H6Z" transform="translate(20,0)" style="stroke-width: 0.5px; fill: rgb(37, 99, 235); fill-opacity: 1; stroke: rgb(229, 236, 246); stroke-opacity: 1;"/></g></g></g><rect class="legendtoggle" x="0" y="-10.6" width="190.359375" height="21.2" style="fill: rgb(0, 0, 0); fill-opacity: 0;"/></g><g class="traces" transform="translate(192.859375,15.6)" style="opacity: 1;"><text class="legendtext" text-anchor="start" x="40" y="5.46" style="font-family: Inter, Helvetica, Arial, sans-serif; font-size: 14px; fill: rgb(31, 41, 55); fill-opacity: 1; white-space: pre;">Haiku Agreement %</text><g class="layers" style="opacity: 1;"><g class="legendfill"/><g class="legendlines"/><g class="legendsymbols"><g class="legendpoints"><path class="legendundefined" d="M6,6H-6V-6H6Z" transform="translate(20,0)" style="stroke-width: 0.5px; fill: rgb(217, 119, 6); fill-opacity: 1; stroke: rgb(229, 236, 246); stroke-opacity: 1;"/></g></g></g><rect class="legendtoggle" x="0" y="-10.6" width="166.234375" height="21.2" style="fill: rgb(0, 0, 0); fill-opacity: 0;"/></g><g class="traces" transform="translate(361.59375,15.6)" style="opacity: 1;"><text class="legendtext" text-anchor="start" x="40" y="5.46" style="font-family: Inter, Helvetica, Arial, sans-serif; font-size: 14px; fill: rgb(31, 41, 55); fill-opacity: 1; white-space: pre;">Inter-Evaluator Agreement</text><g class="layers" style="opacity: 1;"><g class="legendfill"/><g class="legendlines"><path class="js-line" d="M5,0h30" style="fill: none; stroke: rgb(220, 38, 38); stroke-opacity: 1; stroke-dasharray: 9px, 9px; stroke-width: 2px;"/></g><g class="legendsymbols"><g class="legendpoints"><path class="scatterpts" transform="translate(20,0)" d="M4,0A4,4 0 1,1 0,-4A4,4 0 0,1 4,0Z" style="opacity: 1; stroke-width: 0px; fill: rgb(220, 38, 38); fill-opacity: 1;"/></g></g></g><rect class="legendtoggle" x="0" y="-10.6" width="206.0302734375" height="21.2" style="fill: rgb(0, 0, 0); fill-opacity: 0;"/></g></g></g><rect class="scrollbar" rx="20" ry="3" width="0" height="0" style="fill: rgb(128, 139, 164); fill-opacity: 1;" x="0" y="0"/></g><g class="g-gtitle"><text class="gtitle" x="52.5" y="40" text-anchor="start" dy="0em" style="opacity: 1; font-family: Inter, Helvetica, Arial, sans-serif; font-size: 18px; fill: rgb(31, 41, 55); fill-opacity: 1; white-space: pre;"><tspan style="font-weight:bold">Figure 7.</tspan> Evaluator Bias — Local vs. External (Haiku)</text></g><g class="g-xtitle"/><g class="g-ytitle"><text class="ytitle" transform="rotate(-90,18.190624999999997,266.5)" x="18.190624999999997" y="266.5" text-anchor="middle" style="opacity: 1; font-family: Inter, Helvetica, Arial, sans-serif; font-size: 17px; fill: rgb(31, 41, 55); fill-opacity: 1; white-space: pre;">Rate (%)</text></g><g class="annotation" data-index="0" style="opacity: 1;"><g class="annotation-text-g" transform="rotate(0,536.5,65.61999999999999)"><g class="cursor-pointer" transform="translate(325,58)"><rect class="bg" x="0.5" y="0.5" width="422" height="15" style="stroke-width: 1px; stroke: rgb(0, 0, 0); stroke-opacity: 0; fill: rgb(0, 0, 0); fill-opacity: 0;"/><text class="annotation-text" text-anchor="middle" x="211.4140625" y="12" style="font-family: Inter, Helvetica, Arial, sans-serif; font-size: 11px; fill: rgb(107, 114, 128); fill-opacity: 1; white-space: pre;">External evaluators introduce systematic bias toward novel epistemological categories</text></g></g></g></g></svg>